<?xml version="1.0" encoding="UTF-8"?>

<svg version="1.2" baseProfile="tiny" width="50mm" height="50mm" viewBox="0 0 5000 5000" preserveAspectRatio="xMidYMid" fill-rule="evenodd" stroke-width="28.222" stroke-linejoin="round" xmlns="http://www.w3.org/2000/svg" xmlns:xlink="http://www.w3.org/1999/xlink" xml:space="preserve">
 <g visibility="visible" id="MasterSlide_1_Predeterminado">
  <desc>Master slide
  </desc>
  <rect fill="none" stroke="none" x="0" y="0" width="5000" height="5000"/>
 </g>
 <g visibility="visible" id="Slide_1_page1">
  <g>
   <path fill="rgb(108,166,205)" stroke="none" d="M 483,2600 C 291,2600 100,2791 100,2983 L 100,4517 C 100,4709 291,4901 483,4901 L 2017,4901 C 2209,4901 2401,4709 2401,4517 L 2401,2983 C 2401,2791 2209,2600 2017,2600 L 483,2600 Z"/>
   <path fill="none" stroke="rgb(0,0,0)" id="Drawing_1_0" stroke-width="200" stroke-linejoin="round" d="M 483,2600 C 291,2600 100,2791 100,2983 L 100,4517 C 100,4709 291,4901 483,4901 L 2017,4901 C 2209,4901 2401,4709 2401,4517 L 2401,2983 C 2401,2791 2209,2600 2017,2600 L 483,2600 Z"/>
   <rect fill="none" stroke="none" x="100" y="2600" width="2301" height="2301"/>
  </g>
  <g>
   <path fill="rgb(255,140,0)" stroke="none" d="M 3750,2600 C 4402,2600 4900,3098 4900,3750 4900,4402 4402,4900 3750,4900 3098,4900 2600,4402 2600,3750 2600,3098 3098,2600 3750,2600 Z"/>
   <path fill="none" stroke="rgb(0,0,0)" id="Drawing_2_0" stroke-width="200" stroke-linejoin="round" d="M 3750,2600 C 4402,2600 4900,3098 4900,3750 4900,4402 4402,4900 3750,4900 3098,4900 2600,4402 2600,3750 2600,3098 3098,2600 3750,2600 Z"/>
   <rect fill="none" stroke="none" x="2600" y="2600" width="2301" height="2301"/>
  </g>
  <g>
   <path fill="rgb(108,166,205)" stroke="none" d="M 3750,100 L 4901,2401 2600,2401 3750,100 Z"/>
   <path fill="none" stroke="rgb(0,0,0)" id="Drawing_3_0" stroke-width="200" stroke-linejoin="round" d="M 3750,100 L 4901,2401 2600,2401 3750,100 Z"/>
   <rect fill="none" stroke="none" x="2600" y="100" width="2301" height="2301"/>
  </g>
  <g>
   <path fill="rgb(255,140,0)" stroke="none" d="M 1900,100 C 1438,300 975,641 975,1250 975,1859 1438,2200 1900,2401 912,2401 100,1882 100,1250 100,618 912,100 1900,100 L 1900,100 Z"/>
   <path fill="none" stroke="rgb(0,0,0)" id="Drawing_4_0" stroke-width="200" stroke-linejoin="round" d="M 1900,100 C 1438,300 975,641 975,1250 975,1859 1438,2200 1900,2401 912,2401 100,1882 100,1250 100,618 912,100 1900,100 L 1900,100 Z"/>
   <rect fill="none" stroke="none" x="100" y="100" width="1801" height="2301"/>
  </g>
 </g>
</svg>