<?xml version="1.0" encoding="UTF-8"?>

<svg version="1.2" baseProfile="tiny" width="50mm" height="50mm" viewBox="0 0 5000 5000" preserveAspectRatio="xMidYMid" fill-rule="evenodd" stroke-width="28.222" stroke-linejoin="round" xmlns="http://www.w3.org/2000/svg" xmlns:xlink="http://www.w3.org/1999/xlink" xml:space="preserve">
 <g visibility="visible" id="MasterSlide_1_Predeterminado">
  <desc>Master slide
  </desc>
  <rect fill="none" stroke="none" x="0" y="0" width="5000" height="5000"/>
 </g>
 <g visibility="visible" id="Slide_1_page4">
  <g>
   <path fill="rgb(255,140,0)" stroke="none" d="M 2500,4900 C 2058,4900 1683,4799 1300,4578 917,4358 642,4083 422,3700 201,3317 100,2942 100,2500 100,2058 201,1683 422,1300 642,917 917,642 1300,422 1683,201 2058,100 2500,100 2942,100 3317,201 3700,422 4083,642 4358,917 4578,1300 4799,1683 4900,2058 4900,2500 4900,2942 4799,3317 4578,3700 4358,4083 4083,4358 3700,4578 3317,4799 2942,4900 2500,4900 L 2500,4900 Z"/>
   <path fill="none" stroke="rgb(0,0,0)" id="Drawing_1_0" stroke-width="200" stroke-linejoin="round" d="M 2500,4900 C 2058,4900 1683,4799 1300,4578 917,4358 642,4083 422,3700 201,3317 100,2942 100,2500 100,2058 201,1683 422,1300 642,917 917,642 1300,422 1683,201 2058,100 2500,100 2942,100 3317,201 3700,422 4083,642 4358,917 4578,1300 4799,1683 4900,2058 4900,2500 4900,2942 4799,3317 4578,3700 4358,4083 4083,4358 3700,4578 3317,4799 2942,4900 2500,4900 L 2500,4900 Z"/>
  </g>
  <g>
   <path fill="rgb(108,166,205)" stroke="none" d="M 4900,2500 L 4897,2620 4888,2740 4873,2860 4852,2978 4825,3095 4792,3211 4754,3325 4710,3437 4660,3546 4605,3653 4544,3757 4479,3858 4408,3956 4333,4050 4253,4139 4168,4225 4080,4307 3987,4384 3891,4456 3791,4523 3688,4585 3582,4642 3474,4694 3363,4740 3249,4780 3134,4815 3017,4844 2899,4867 2780,4884 2660,4895 2540,4900 2420,4899 2300,4892 2180,4879 2061,4860 1944,4835 1827,4804 1713,4767 1600,4725 1490,4677 1382,4624 1277,4565 1175,4501 1076,4432 981,4358 890,4280 803,4197 720,4110 642,4019 568,3924 499,3825 435,3723 376,3618 323,3510 275,3400 233,3287 196,3173 165,3056 140,2939 121,2820 108,2700 101,2580 100,2460 105,2340 116,2220 133,2101 156,1983 185,1866 220,1751 260,1637 306,1526 358,1418 415,1312 477,1209 544,1109 616,1013 693,920 775,832 861,747 950,667 1044,592 1142,521 1243,456 1347,395 1454,340 1563,290 1675,246 1789,208 1905,175 2022,148 2140,127 2260,112 2380,103 2500,100 2500,2500 4900,2500 Z"/>
   <rect fill="none" stroke="none" x="100" y="100" width="4802" height="4802"/>
   <path fill="none" stroke="rgb(0,0,0)" id="Drawing_2_0" stroke-width="200" stroke-linejoin="round" d="M 4900,2500 L 4897,2620 4888,2740 4873,2860 4852,2978 4825,3095 4792,3211 4754,3325 4710,3437 4660,3546 4605,3653 4544,3757 4479,3858 4408,3956 4333,4050 4253,4139 4168,4225 4080,4307 3987,4384 3891,4456 3791,4523 3688,4585 3582,4642 3474,4694 3363,4740 3249,4780 3134,4815 3017,4844 2899,4867 2780,4884 2660,4895 2540,4900 2420,4899 2300,4892 2180,4879 2061,4860 1944,4835 1827,4804 1713,4767 1600,4725 1490,4677 1382,4624 1277,4565 1175,4501 1076,4432 981,4358 890,4280 803,4197 720,4110 642,4019 568,3924 499,3825 435,3723 376,3618 323,3510 275,3400 233,3287 196,3173 165,3056 140,2939 121,2820 108,2700 101,2580 100,2460 105,2340 116,2220 133,2101 156,1983 185,1866 220,1751 260,1637 306,1526 358,1418 415,1312 477,1209 544,1109 616,1013 693,920 775,832 861,747 950,667 1044,592 1142,521 1243,456 1347,395 1454,340 1563,290 1675,246 1789,208 1905,175 2022,148 2140,127 2260,112 2380,103 2500,100 2500,2500 4900,2500 Z"/>
   <rect fill="none" stroke="none" x="100" y="100" width="4801" height="4801"/>
  </g>
 </g>
</svg>