<?xml version="1.0" encoding="UTF-8"?>

<svg version="1.2" baseProfile="tiny" width="50mm" height="50mm" viewBox="0 0 5000 5000" preserveAspectRatio="xMidYMid" fill-rule="evenodd" stroke-width="28.222" stroke-linejoin="round" xmlns="http://www.w3.org/2000/svg" xmlns:xlink="http://www.w3.org/1999/xlink" xml:space="preserve">
 <g visibility="visible" id="MasterSlide_1_Predeterminado">
  <desc>Master slide
  </desc>
  <rect fill="none" stroke="none" x="0" y="0" width="5000" height="5000"/>
 </g>
 <g visibility="visible" id="Slide_1_page11">
  <g>
   <path fill="none" stroke="rgb(0,0,0)" id="Drawing_1_0" stroke-width="100" stroke-linejoin="round" d="M 200,200 L 200,4600"/>
  </g>
  <g>
   <path fill="none" stroke="rgb(0,0,0)" id="Drawing_2_0" stroke-width="100" stroke-linejoin="round" d="M 200,4550 L 4500,4550"/>
  </g>
  <g>
   <path fill="rgb(108,166,205)" stroke="none" d="M 900,3100 C 863,3100 832,3092 800,3073 768,3055 745,3032 727,3000 708,2968 700,2937 700,2900 700,2863 708,2832 727,2800 745,2768 768,2745 800,2727 832,2708 863,2700 900,2700 937,2700 968,2708 1000,2727 1032,2745 1055,2768 1073,2800 1092,2832 1100,2863 1100,2900 1100,2937 1092,2968 1073,3000 1055,3032 1032,3055 1000,3073 968,3092 937,3100 900,3100 L 900,3100 Z"/>
   <path fill="none" stroke="rgb(0,0,0)" id="Drawing_3_0" stroke-width="100" stroke-linejoin="round" d="M 900,3100 C 863,3100 832,3092 800,3073 768,3055 745,3032 727,3000 708,2968 700,2937 700,2900 700,2863 708,2832 727,2800 745,2768 768,2745 800,2727 832,2708 863,2700 900,2700 937,2700 968,2708 1000,2727 1032,2745 1055,2768 1073,2800 1092,2832 1100,2863 1100,2900 1100,2937 1092,2968 1073,3000 1055,3032 1032,3055 1000,3073 968,3092 937,3100 900,3100 L 900,3100 Z"/>
  </g>
  <g>
   <path fill="rgb(108,166,205)" stroke="none" d="M 2300,3500 C 2263,3500 2232,3492 2200,3473 2168,3455 2145,3432 2127,3400 2108,3368 2100,3337 2100,3300 2100,3263 2108,3232 2127,3200 2145,3168 2168,3145 2200,3127 2232,3108 2263,3100 2300,3100 2337,3100 2368,3108 2400,3127 2432,3145 2455,3168 2473,3200 2492,3232 2500,3263 2500,3300 2500,3337 2492,3368 2473,3400 2455,3432 2432,3455 2400,3473 2368,3492 2337,3500 2300,3500 L 2300,3500 Z"/>
   <path fill="none" stroke="rgb(0,0,0)" id="Drawing_4_0" stroke-width="100" stroke-linejoin="round" d="M 2300,3500 C 2263,3500 2232,3492 2200,3473 2168,3455 2145,3432 2127,3400 2108,3368 2100,3337 2100,3300 2100,3263 2108,3232 2127,3200 2145,3168 2168,3145 2200,3127 2232,3108 2263,3100 2300,3100 2337,3100 2368,3108 2400,3127 2432,3145 2455,3168 2473,3200 2492,3232 2500,3263 2500,3300 2500,3337 2492,3368 2473,3400 2455,3432 2432,3455 2400,3473 2368,3492 2337,3500 2300,3500 L 2300,3500 Z"/>
  </g>
  <g>
   <path fill="rgb(108,166,205)" stroke="none" d="M 2000,1800 C 1963,1800 1932,1792 1900,1773 1868,1755 1845,1732 1827,1700 1808,1668 1800,1637 1800,1600 1800,1563 1808,1532 1827,1500 1845,1468 1868,1445 1900,1427 1932,1408 1963,1400 2000,1400 2037,1400 2068,1408 2100,1427 2132,1445 2155,1468 2173,1500 2192,1532 2200,1563 2200,1600 2200,1637 2192,1668 2173,1700 2155,1732 2132,1755 2100,1773 2068,1792 2037,1800 2000,1800 L 2000,1800 Z"/>
   <path fill="none" stroke="rgb(0,0,0)" id="Drawing_5_0" stroke-width="100" stroke-linejoin="round" d="M 2000,1800 C 1963,1800 1932,1792 1900,1773 1868,1755 1845,1732 1827,1700 1808,1668 1800,1637 1800,1600 1800,1563 1808,1532 1827,1500 1845,1468 1868,1445 1900,1427 1932,1408 1963,1400 2000,1400 2037,1400 2068,1408 2100,1427 2132,1445 2155,1468 2173,1500 2192,1532 2200,1563 2200,1600 2200,1637 2192,1668 2173,1700 2155,1732 2132,1755 2100,1773 2068,1792 2037,1800 2000,1800 L 2000,1800 Z"/>
  </g>
  <g>
   <path fill="rgb(108,166,205)" stroke="none" d="M 3600,2500 C 3563,2500 3532,2492 3500,2473 3468,2455 3445,2432 3427,2400 3408,2368 3400,2337 3400,2300 3400,2263 3408,2232 3427,2200 3445,2168 3468,2145 3500,2127 3532,2108 3563,2100 3600,2100 3637,2100 3668,2108 3700,2127 3732,2145 3755,2168 3773,2200 3792,2232 3800,2263 3800,2300 3800,2337 3792,2368 3773,2400 3755,2432 3732,2455 3700,2473 3668,2492 3637,2500 3600,2500 L 3600,2500 Z"/>
   <path fill="none" stroke="rgb(0,0,0)" id="Drawing_6_0" stroke-width="100" stroke-linejoin="round" d="M 3600,2500 C 3563,2500 3532,2492 3500,2473 3468,2455 3445,2432 3427,2400 3408,2368 3400,2337 3400,2300 3400,2263 3408,2232 3427,2200 3445,2168 3468,2145 3500,2127 3532,2108 3563,2100 3600,2100 3637,2100 3668,2108 3700,2127 3732,2145 3755,2168 3773,2200 3792,2232 3800,2263 3800,2300 3800,2337 3792,2368 3773,2400 3755,2432 3732,2455 3700,2473 3668,2492 3637,2500 3600,2500 L 3600,2500 Z"/>
  </g>
  <g>
   <path fill="rgb(108,166,205)" stroke="none" d="M 3300,1300 C 3263,1300 3232,1292 3200,1273 3168,1255 3145,1232 3127,1200 3108,1168 3100,1137 3100,1100 3100,1063 3108,1032 3127,1000 3145,968 3168,945 3200,927 3232,908 3263,900 3300,900 3337,900 3368,908 3400,927 3432,945 3455,968 3473,1000 3492,1032 3500,1063 3500,1100 3500,1137 3492,1168 3473,1200 3455,1232 3432,1255 3400,1273 3368,1292 3337,1300 3300,1300 L 3300,1300 Z"/>
   <path fill="none" stroke="rgb(0,0,0)" id="Drawing_7_0" stroke-width="100" stroke-linejoin="round" d="M 3300,1300 C 3263,1300 3232,1292 3200,1273 3168,1255 3145,1232 3127,1200 3108,1168 3100,1137 3100,1100 3100,1063 3108,1032 3127,1000 3145,968 3168,945 3200,927 3232,908 3263,900 3300,900 3337,900 3368,908 3400,927 3432,945 3455,968 3473,1000 3492,1032 3500,1063 3500,1100 3500,1137 3492,1168 3473,1200 3455,1232 3432,1255 3400,1273 3368,1292 3337,1300 3300,1300 L 3300,1300 Z"/>
  </g>
  <g>
   <path fill="none" stroke="rgb(0,0,0)" id="Drawing_8_0" stroke-width="300" stroke-linejoin="round" d="M 700,3900 L 4400,600"/>
  </g>
  <g>
   <path fill="none" stroke="rgb(255,140,0)" id="Drawing_9_0" stroke-width="100" stroke-linejoin="round" d="M 800,3800 L 4300,700"/>
  </g>
 </g>
</svg>