<?xml version="1.0" encoding="UTF-8"?>

<svg version="1.2" baseProfile="tiny" width="50mm" height="50mm" viewBox="0 0 5000 5000" preserveAspectRatio="xMidYMid" fill-rule="evenodd" stroke-width="28.222" stroke-linejoin="round" xmlns="http://www.w3.org/2000/svg" xmlns:xlink="http://www.w3.org/1999/xlink" xml:space="preserve">
 <g visibility="visible" id="MasterSlide_1_Predeterminado">
  <desc>Master slide
  </desc>
  <rect fill="none" stroke="none" x="0" y="0" width="5000" height="5000"/>
 </g>
 <g visibility="visible" id="Slide_1_page12">
  <g>
   <path fill="rgb(108,166,205)" stroke="none" d="M 1850,1100 L 300,1100 300,600 3400,600 3400,1100 1850,1100 Z"/>
   <path fill="none" stroke="rgb(0,0,0)" id="Drawing_1_0" stroke-width="100" stroke-linejoin="round" d="M 1850,1100 L 300,1100 300,600 3400,600 3400,1100 1850,1100 Z"/>
  </g>
  <g>
   <path fill="rgb(108,166,205)" stroke="none" d="M 650,1900 L 300,1900 300,1400 1000,1400 1000,1900 650,1900 Z"/>
   <path fill="none" stroke="rgb(0,0,0)" id="Drawing_2_0" stroke-width="100" stroke-linejoin="round" d="M 650,1900 L 300,1900 300,1400 1000,1400 1000,1900 650,1900 Z"/>
  </g>
  <g>
   <path fill="rgb(108,166,205)" stroke="none" d="M 2150,2700 L 300,2700 300,2200 4000,2200 4000,2700 2150,2700 Z"/>
   <path fill="none" stroke="rgb(0,0,0)" id="Drawing_3_0" stroke-width="100" stroke-linejoin="round" d="M 2150,2700 L 300,2700 300,2200 4000,2200 4000,2700 2150,2700 Z"/>
  </g>
  <g>
   <path fill="rgb(108,166,205)" stroke="none" d="M 1600,3500 L 300,3500 300,3000 2900,3000 2900,3500 1600,3500 Z"/>
   <path fill="none" stroke="rgb(0,0,0)" id="Drawing_4_0" stroke-width="100" stroke-linejoin="round" d="M 1600,3500 L 300,3500 300,3000 2900,3000 2900,3500 1600,3500 Z"/>
  </g>
  <g>
   <path fill="rgb(108,166,205)" stroke="none" d="M 650,4300 L 300,4300 300,3800 1000,3800 1000,4300 650,4300 Z"/>
   <path fill="none" stroke="rgb(0,0,0)" id="Drawing_5_0" stroke-width="100" stroke-linejoin="round" d="M 650,4300 L 300,4300 300,3800 1000,3800 1000,4300 650,4300 Z"/>
  </g>
  <g>
   <path fill="rgb(255,140,0)" stroke="none" d="M 3950,1100 C 3904,1100 3865,1090 3825,1067 3785,1043 3757,1015 3733,975 3710,935 3700,896 3700,850 3700,804 3710,765 3733,725 3757,685 3785,657 3825,633 3865,610 3904,600 3950,600 3996,600 4035,610 4075,633 4115,657 4143,685 4167,725 4190,765 4200,804 4200,850 4200,896 4190,935 4167,975 4143,1015 4115,1043 4075,1067 4035,1090 3996,1100 3950,1100 L 3950,1100 Z"/>
   <path fill="none" stroke="rgb(0,0,0)" id="Drawing_6_0" stroke-width="100" stroke-linejoin="round" d="M 3950,1100 C 3904,1100 3865,1090 3825,1067 3785,1043 3757,1015 3733,975 3710,935 3700,896 3700,850 3700,804 3710,765 3733,725 3757,685 3785,657 3825,633 3865,610 3904,600 3950,600 3996,600 4035,610 4075,633 4115,657 4143,685 4167,725 4190,765 4200,804 4200,850 4200,896 4190,935 4167,975 4143,1015 4115,1043 4075,1067 4035,1090 3996,1100 3950,1100 L 3950,1100 Z"/>
  </g>
  <g>
   <path fill="none" stroke="rgb(0,0,0)" id="Drawing_7_0" stroke-width="100" stroke-linejoin="round" d="M 3914,957 L 4300,600"/>
  </g>
  <g>
   <path fill="none" stroke="rgb(0,0,0)" id="Drawing_8_0" stroke-width="100" stroke-linejoin="round" d="M 3950,936 L 3843,814"/>
  </g>
  <g>
   <path fill="rgb(108,166,205)" stroke="none" d="M 1550,1900 C 1504,1900 1465,1890 1425,1867 1385,1843 1357,1815 1333,1775 1310,1735 1300,1696 1300,1650 1300,1604 1310,1565 1333,1525 1357,1485 1385,1457 1425,1433 1465,1410 1504,1400 1550,1400 1596,1400 1635,1410 1675,1433 1715,1457 1743,1485 1767,1525 1790,1565 1800,1604 1800,1650 1800,1696 1790,1735 1767,1775 1743,1815 1715,1843 1675,1867 1635,1890 1596,1900 1550,1900 L 1550,1900 Z"/>
   <path fill="none" stroke="rgb(0,0,0)" id="Drawing_9_0" stroke-width="100" stroke-linejoin="round" d="M 1550,1900 C 1504,1900 1465,1890 1425,1867 1385,1843 1357,1815 1333,1775 1310,1735 1300,1696 1300,1650 1300,1604 1310,1565 1333,1525 1357,1485 1385,1457 1425,1433 1465,1410 1504,1400 1550,1400 1596,1400 1635,1410 1675,1433 1715,1457 1743,1485 1767,1525 1790,1565 1800,1604 1800,1650 1800,1696 1790,1735 1767,1775 1743,1815 1715,1843 1675,1867 1635,1890 1596,1900 1550,1900 L 1550,1900 Z"/>
  </g>
  <g>
   <path fill="none" stroke="rgb(0,0,0)" id="Drawing_10_0" stroke-width="100" stroke-linejoin="round" d="M 1400,1857 L 1700,1500"/>
  </g>
  <g>
   <path fill="none" stroke="rgb(0,0,0)" id="Drawing_11_0" stroke-width="100" stroke-linejoin="round" d="M 1700,1800 L 1400,1500"/>
  </g>
  <g>
   <path fill="rgb(255,140,0)" stroke="none" d="M 4550,2700 C 4504,2700 4465,2690 4425,2667 4385,2643 4357,2615 4333,2575 4310,2535 4300,2496 4300,2450 4300,2404 4310,2365 4333,2325 4357,2285 4385,2257 4425,2233 4465,2210 4504,2200 4550,2200 4596,2200 4635,2210 4675,2233 4715,2257 4743,2285 4767,2325 4790,2365 4800,2404 4800,2450 4800,2496 4790,2535 4767,2575 4743,2615 4715,2643 4675,2667 4635,2690 4596,2700 4550,2700 L 4550,2700 Z"/>
   <path fill="none" stroke="rgb(0,0,0)" id="Drawing_12_0" stroke-width="100" stroke-linejoin="round" d="M 4550,2700 C 4504,2700 4465,2690 4425,2667 4385,2643 4357,2615 4333,2575 4310,2535 4300,2496 4300,2450 4300,2404 4310,2365 4333,2325 4357,2285 4385,2257 4425,2233 4465,2210 4504,2200 4550,2200 4596,2200 4635,2210 4675,2233 4715,2257 4743,2285 4767,2325 4790,2365 4800,2404 4800,2450 4800,2496 4790,2535 4767,2575 4743,2615 4715,2643 4675,2667 4635,2690 4596,2700 4550,2700 L 4550,2700 Z"/>
  </g>
  <g>
   <path fill="none" stroke="rgb(0,0,0)" id="Drawing_13_0" stroke-width="100" stroke-linejoin="round" d="M 4514,2557 L 4900,2200"/>
  </g>
  <g>
   <path fill="none" stroke="rgb(0,0,0)" id="Drawing_14_0" stroke-width="100" stroke-linejoin="round" d="M 4550,2536 L 4443,2414"/>
  </g>
  <g>
   <path fill="rgb(255,140,0)" stroke="none" d="M 3450,3500 C 3404,3500 3365,3490 3325,3467 3285,3443 3257,3415 3233,3375 3210,3335 3200,3296 3200,3250 3200,3204 3210,3165 3233,3125 3257,3085 3285,3057 3325,3033 3365,3010 3404,3000 3450,3000 3496,3000 3535,3010 3575,3033 3615,3057 3643,3085 3667,3125 3690,3165 3700,3204 3700,3250 3700,3296 3690,3335 3667,3375 3643,3415 3615,3443 3575,3467 3535,3490 3496,3500 3450,3500 L 3450,3500 Z"/>
   <path fill="none" stroke="rgb(0,0,0)" id="Drawing_15_0" stroke-width="100" stroke-linejoin="round" d="M 3450,3500 C 3404,3500 3365,3490 3325,3467 3285,3443 3257,3415 3233,3375 3210,3335 3200,3296 3200,3250 3200,3204 3210,3165 3233,3125 3257,3085 3285,3057 3325,3033 3365,3010 3404,3000 3450,3000 3496,3000 3535,3010 3575,3033 3615,3057 3643,3085 3667,3125 3690,3165 3700,3204 3700,3250 3700,3296 3690,3335 3667,3375 3643,3415 3615,3443 3575,3467 3535,3490 3496,3500 3450,3500 L 3450,3500 Z"/>
  </g>
  <g>
   <path fill="none" stroke="rgb(0,0,0)" id="Drawing_16_0" stroke-width="100" stroke-linejoin="round" d="M 3414,3357 L 3800,3000"/>
  </g>
  <g>
   <path fill="none" stroke="rgb(0,0,0)" id="Drawing_17_0" stroke-width="100" stroke-linejoin="round" d="M 3450,3336 L 3343,3214"/>
  </g>
  <g>
   <path fill="rgb(108,166,205)" stroke="none" d="M 1450,4300 C 1404,4300 1365,4290 1325,4267 1285,4243 1257,4215 1233,4175 1210,4135 1200,4096 1200,4050 1200,4004 1210,3965 1233,3925 1257,3885 1285,3857 1325,3833 1365,3810 1404,3800 1450,3800 1496,3800 1535,3810 1575,3833 1615,3857 1643,3885 1667,3925 1690,3965 1700,4004 1700,4050 1700,4096 1690,4135 1667,4175 1643,4215 1615,4243 1575,4267 1535,4290 1496,4300 1450,4300 L 1450,4300 Z"/>
   <path fill="none" stroke="rgb(0,0,0)" id="Drawing_18_0" stroke-width="100" stroke-linejoin="round" d="M 1450,4300 C 1404,4300 1365,4290 1325,4267 1285,4243 1257,4215 1233,4175 1210,4135 1200,4096 1200,4050 1200,4004 1210,3965 1233,3925 1257,3885 1285,3857 1325,3833 1365,3810 1404,3800 1450,3800 1496,3800 1535,3810 1575,3833 1615,3857 1643,3885 1667,3925 1690,3965 1700,4004 1700,4050 1700,4096 1690,4135 1667,4175 1643,4215 1615,4243 1575,4267 1535,4290 1496,4300 1450,4300 L 1450,4300 Z"/>
  </g>
  <g>
   <path fill="none" stroke="rgb(0,0,0)" id="Drawing_19_0" stroke-width="100" stroke-linejoin="round" d="M 1300,4257 L 1600,3900"/>
  </g>
  <g>
   <path fill="none" stroke="rgb(0,0,0)" id="Drawing_20_0" stroke-width="100" stroke-linejoin="round" d="M 1600,4200 L 1300,3900"/>
  </g>
 </g>
</svg>